<svg xmlns="http://www.w3.org/2000/svg" viewBox="0 0 72 72" role="img" aria-label="ViralNight">
  <defs>
    <linearGradient id="vn-bg" x1="10" y1="8" x2="62" y2="64" gradientUnits="userSpaceOnUse">
      <stop offset="0" stop-color="#ff624f"/>
      <stop offset="0.45" stop-color="#f3b94f"/>
      <stop offset="1" stop-color="#00b8a9"/>
    </linearGradient>
    <linearGradient id="vn-cut" x1="20" y1="18" x2="52" y2="54" gradientUnits="userSpaceOnUse">
      <stop offset="0" stop-color="#ffffff"/>
      <stop offset="1" stop-color="#f4efe8"/>
    </linearGradient>
  </defs>
  <rect width="72" height="72" rx="18" fill="#08090c"/>
  <path d="M16 50V22c0-3.3 2.7-6 6-6h28c3.3 0 6 2.7 6 6v28c0 3.3-2.7 6-6 6H22c-3.3 0-6-2.7-6-6Z" fill="url(#vn-bg)"/>
  <path d="M24 24h8.2l7.1 18.1L48 24h7.3L42.4 50h-7.1L24 24Z" fill="#08090c" opacity=".82"/>
  <path d="M25.5 22.5h7.6l6.9 17.6 8.4-17.6h6.5L42.5 48.4h-6.8L25.5 22.5Z" fill="url(#vn-cut)"/>
  <path d="M48 43.5l8.5-5.1c1.3-.8 3 .2 3 1.7v10.2c0 1.5-1.7 2.5-3 1.7L48 47c-1.2-.7-1.2-2.8 0-3.5Z" fill="#08090c" opacity=".88"/>
</svg>
